<mxfile host="app.diagrams.net" modified="2024-02-25T19:00:02.010Z" agent="Mozilla/5.0 (Macintosh; Intel Mac OS X 10_15_7) AppleWebKit/537.36 (KHTML, like Gecko) Chrome/120.0.0.0 Safari/537.36" version="23.1.6" etag="pOxkJmFxuqLNZvKWrq5E" type="github">
  <diagram name="Page-1" id="XCaTFJHMV760R7Y61efN">
    <mxGraphModel>
      <root>
        <mxCell id="0" />
        <mxCell id="1" parent="0" />
      </root>
    </mxGraphModel>
  </diagram>
</mxfile>
